HIERARCHY
ROOT hip
{
	OFFSET 0.000000 0.000000 0.000000 
	CHANNELS 6 Xposition Yposition Zposition Xrotation Zrotation Yrotation
	JOINT abdomen
	{
		OFFSET 0.000000 3.402643 0.000000 
		CHANNELS 3 Xrotation Zrotation Yrotation
		JOINT chest
		{
			OFFSET 0.000000 8.438565 -0.680529 
			CHANNELS 3 Xrotation Zrotation Yrotation
			JOINT neck
			{
				OFFSET 0.000000 10.207942 -0.272212 
				CHANNELS 3 Xrotation Zrotation Yrotation
				JOINT head
				{
					OFFSET 0.000000 3.130431 0.000000 
					CHANNELS 3 Xrotation Zrotation Yrotation
					End Site
					{
						OFFSET 0.000000 3.130435 0.000000 
					}
				}
			}
			JOINT lCollar
			{
				OFFSET 3.470700 6.669187 -0.816635 
				CHANNELS 3 Yrotation Zrotation Xrotation
				JOINT lShldr
				{
					OFFSET 3.198488 0.000000 0.000000 
					CHANNELS 3 Zrotation Yrotation Xrotation
					JOINT lForeArm
					{
						OFFSET 10.139888 0.000000 0.000000 
						CHANNELS 3 Yrotation Zrotation Xrotation
						JOINT lHand
						{
							OFFSET 8.370511 0.000000 0.000000 
							CHANNELS 3 Zrotation Yrotation Xrotation
							End Site
							{
								OFFSET 4.083176 0.000000 0.000000 
							}
						}
					}
				}
			}
			JOINT rCollar
			{
				OFFSET -3.470700 6.669187 -0.816635 
				CHANNELS 3 Yrotation Zrotation Xrotation
				JOINT rShldr
				{
					OFFSET -3.198488 0.000000 0.000000 
					CHANNELS 3 Zrotation Yrotation Xrotation
					JOINT rForeArm
					{
						OFFSET -10.139888 0.000000 0.000000 
						CHANNELS 3 Yrotation Zrotation Xrotation
						JOINT rHand
						{
							OFFSET -8.370511 0.000000 0.000000 
							CHANNELS 3 Zrotation Yrotation Xrotation
							End Site
							{
								OFFSET -4.083176 0.000000 0.000000 
							}
						}
					}
				}
			}
		}
	}
	JOINT lThigh
	{
		OFFSET 5.308129 -1.633274 1.361059 
		CHANNELS 3 Xrotation Zrotation Yrotation
		JOINT lShin
		{
			OFFSET -2.041588 -20.007561 0.000000 
			CHANNELS 3 Xrotation Zrotation Yrotation
			JOINT lFoot
			{
				OFFSET 0.000000 -19.190928 -1.224953 
				CHANNELS 3 Xrotation Yrotation Zrotation
				End Site
				{
					OFFSET 0.000000 -2.449906 4.627600 
				}
			}
		}
	}
	JOINT rThigh
	{
		OFFSET -5.308129 -1.633274 1.361059 
		CHANNELS 3 Xrotation Zrotation Yrotation
		JOINT rShin
		{
			OFFSET 2.041588 -20.007561 0.000000 
			CHANNELS 3 Xrotation Zrotation Yrotation
			JOINT rFoot
			{
				OFFSET 0.000000 -19.190928 -1.224953 
				CHANNELS 3 Xrotation Yrotation Zrotation
				End Site
				{
					OFFSET 0.000000 -2.449906 4.627600 
				}
			}
		}
	}
}
MOTION
Frames: 14
Frame Time: 0.016667
-1.665475 52.155148 0.676084 -0.570387 13.469983 59.751579 24.921816 0.570962 4.072483 3.524591 -2.217029 8.070360 17.848646 -4.166912 -1.180679 6.825817 -13.583551 75.968933 -3.050422 -12.436335 -0.659748 -65.761436 13.956163 -28.529886 -23.864298 -5.000000 24.367241 -17.161789 10.219367 13.316612 24.255163 4.162879 -0.222452 74.224106 -11.602560 -26.343876 25.790100 5.000000 17.851822 7.800897 -30.000000 5.020837 -1.579284 7.200736 -18.419933 7.355280 -5.292551 -0.904345 -3.186309 -25.933569 -21.049732 22.527149 -3.663334 -39.995895 11.126448 2.090880 0.384929 -20.623114 -36.238796 2.102629 
-1.656185 52.155266 0.635018 -0.539936 13.481763 59.940109 24.923731 0.623558 4.072580 3.475007 -2.216959 8.080111 17.798716 -4.146162 -1.173966 6.834662 -13.498503 75.969337 -3.069722 -12.416828 -0.658741 -65.759323 13.778311 -28.248589 -24.118933 -5.000000 23.922348 -17.065792 10.142485 13.269950 24.206642 4.240907 -0.226490 74.144600 -11.602388 -26.277742 25.711987 5.000000 17.776957 7.864331 -30.000000 5.061804 -1.657431 7.112717 -18.461138 7.408659 -5.250072 -0.935686 -3.155523 -26.052786 -21.132277 22.494278 -3.703678 -39.997429 11.204088 2.100689 0.390129 -20.630922 -36.361073 2.097828 
-1.645679 52.155796 0.594049 -0.500591 13.491485 60.117405 24.914862 0.664091 4.078242 3.456007 -2.207200 8.099633 17.747015 -4.103215 -1.150906 6.809767 -13.454846 75.967430 -3.098789 -12.397321 -0.657734 -65.758255 13.600790 -27.967083 -24.371994 -5.000000 23.488640 -16.983831 10.065619 13.179683 24.148285 4.299432 -0.229519 74.066437 -11.595370 -26.223663 25.625681 5.000000 17.709724 7.931766 -30.000000 5.125293 -1.754912 6.994836 -18.532459 7.488700 -5.221926 -0.911667 -3.103004 -26.117138 -21.161226 22.470417 -3.740484 -39.998474 11.261928 2.110169 0.394201 -20.640312 -36.488979 2.113008 
-1.633830 52.156811 0.552984 -0.473054 13.498156 60.272430 24.885496 0.683598 4.085655 3.457290 -2.197511 8.118798 17.694777 -4.031306 -1.131533 6.770653 -13.450111 75.962875 -3.137621 -12.377807 -0.656727 -65.752373 13.414343 -27.702030 -24.637178 -5.000000 23.063591 -16.893194 9.990177 13.071046 24.070358 4.348207 -0.232046 74.006134 -11.579622 -26.173573 25.537632 5.000000 17.652765 7.970896 -30.000000 5.230669 -1.821988 6.885753 -18.574427 7.566179 -5.143580 -0.904723 -3.125068 -26.167435 -21.254059 22.454550 -3.761915 -40.000000 11.280673 2.059920 0.401001 -20.614977 -36.602192 2.153005 
-1.621305 52.158085 0.512706 -0.446506 13.503145 60.416286 24.856194 0.715481 4.087557 3.458571 -2.187823 8.128572 17.642784 -3.969048 -1.111392 6.729783 -13.433988 75.960762 -3.166688 -12.358300 -0.655720 -65.745239 13.224168 -27.425900 -24.902042 -5.000000 22.656317 -16.813643 9.914515 12.949593 24.002201 4.396980 -0.234572 73.944489 -11.551702 -26.115028 25.455938 5.000000 17.596493 8.016788 -30.000000 5.329725 -1.912911 6.805131 -18.663736 7.641277 -5.102815 -0.880013 -3.101333 -26.247982 -21.349955 22.458366 -3.809779 -39.998005 11.316381 2.080145 0.414168 -20.616520 -36.675323 2.156239 
-1.608047 52.159546 0.473940 -0.463598 13.497469 60.500202 24.857994 0.778669 4.113418 3.448432 -2.187788 8.138330 17.592062 -3.937195 -1.096502 6.712878 -13.379002 75.963715 -3.205636 -12.348541 -0.655216 -65.755539 13.063576 -27.180723 -25.157879 -5.000000 22.334528 -16.794643 9.852822 12.787160 23.943810 4.445752 -0.237096 73.885483 -11.538493 -26.074354 25.380625 5.000000 17.539169 8.045547 -30.000000 5.390437 -1.969771 6.732631 -18.665045 7.745774 -5.068048 -0.896939 -3.113374 -26.278616 -21.406984 22.448103 -3.809961 -39.998131 11.337925 2.070754 0.414907 -20.638132 -36.825050 2.095970 
-1.594383 52.161289 0.435922 -0.482839 13.495385 60.575314 24.850994 0.841557 4.138627 3.428154 -2.187719 8.167613 17.532621 -3.926096 -1.088327 6.694234 -13.315090 75.971573 -3.244469 -12.329030 -0.654209 -65.766235 12.912231 -26.931349 -25.415230 -5.000000 22.023678 -16.768993 9.783553 12.606228 23.885422 4.494524 -0.239621 73.825104 -11.522490 -26.024460 25.302061 5.000000 17.499077 8.057321 -30.000000 5.447927 -2.030552 6.679025 -18.684998 7.837757 -5.015343 -0.901506 -3.075586 -26.273121 -21.423582 22.442430 -3.831213 -40.000000 11.354266 2.088301 0.426766 -20.624144 -36.890430 2.142207 
-1.581428 52.163246 0.397056 -0.502195 13.487345 60.637074 24.832439 0.887157 4.156823 3.419299 -2.177995 8.157850 17.482765 -3.905343 -1.081611 6.669396 -13.278680 75.979065 -3.271522 -12.319830 -0.644180 -65.771271 12.760715 -26.692297 -25.645849 -5.000000 21.745064 -16.772533 9.714626 12.434245 23.846565 4.543293 -0.242144 73.774925 -11.523593 -25.980331 25.245579 5.000000 17.436859 8.073876 -30.000000 5.500082 -2.086935 6.615487 -18.695793 7.929782 -4.979305 -0.907698 -3.119681 -26.342892 -21.519218 22.425182 -3.850219 -39.999489 11.374867 2.089746 0.398762 -20.598770 -36.997940 2.122029 
-1.569117 52.165401 0.357251 -0.515099 13.481948 60.678989 24.813385 0.933670 4.175368 3.420752 -2.158514 8.157845 17.442680 -3.884588 -1.074894 6.625219 -13.256483 75.997810 -3.293183 -12.319270 -0.653705 -65.761147 12.622174 -26.459667 -25.837217 -5.000000 21.495260 -16.793062 9.617874 12.259034 23.807632 4.572556 -0.243659 73.741287 -11.513351 -25.930851 25.204437 5.000000 17.373678 8.084352 -30.000000 5.560380 -2.147048 6.540561 -18.706499 8.042455 -4.927733 -0.894263 -3.116869 -26.362921 -21.579647 22.415314 -3.879687 -39.997890 11.390257 2.110600 0.420980 -20.631134 -37.100201 2.067896 
-1.556920 52.168060 0.318886 -0.535604 13.472777 60.729664 24.804266 0.967329 4.198961 3.411898 -2.148792 8.148079 17.393019 -3.873489 -1.066717 6.594139 -13.242785 75.998100 -3.312599 -12.309515 -0.653201 -65.755684 12.491761 -26.246450 -26.026392 -5.000000 21.268879 -16.817719 9.537838 12.097532 23.768694 4.601820 -0.245174 73.707642 -11.503059 -25.879438 25.166573 5.000000 17.325245 8.078918 -30.000000 5.619671 -2.193439 6.486697 -18.717110 8.133477 -4.871224 -0.898404 -3.166273 -26.444260 -21.669760 22.422722 -3.890127 -40.000000 11.370990 2.107376 0.419616 -20.562637 -37.137146 2.101989 
-1.544639 52.171467 0.283150 -0.570195 13.471072 60.760521 24.806448 1.010507 4.195019 3.394742 -2.119589 8.167607 17.342352 -3.841634 -1.051167 6.590723 -13.238405 75.940994 -3.351548 -12.299756 -0.652697 -65.769737 12.377169 -26.078701 -26.167515 -5.000000 21.156940 -16.898228 9.478909 11.924917 23.719952 4.621332 -0.246185 73.678062 -11.500978 -25.857815 25.147598 5.000000 17.275623 8.012440 -30.000000 5.692461 -2.234885 6.452546 -18.736683 8.230719 -4.822034 -0.893903 -3.220881 -26.469725 -21.735630 22.446123 -3.879132 -39.997528 11.349921 2.110312 0.438210 -20.541790 -37.226791 2.083964 
-1.532355 52.175274 0.248899 -0.616708 13.473103 60.782604 24.818359 1.062646 4.194795 3.376322 -2.100076 8.196891 17.282579 -3.811226 -1.045913 6.598679 -13.235637 75.870094 -3.400262 -12.289996 -0.652193 -65.786156 12.266766 -25.921618 -26.317694 -5.000000 21.059723 -16.984741 9.433497 11.756936 23.661446 4.640846 -0.247197 73.658768 -11.506740 -25.844648 25.119127 5.000000 17.227404 7.934464 -30.000000 5.770430 -2.271637 6.399104 -18.747425 8.345341 -4.781513 -0.862120 -3.219166 -26.433372 -21.720177 22.456392 -3.878948 -39.997410 11.329425 2.110107 0.456565 -20.470768 -37.339294 2.090871 
-1.519985 52.178768 0.214545 -0.664535 13.468336 60.780331 24.820698 1.101956 4.199363 3.358625 -2.080631 8.187126 17.232933 -3.800125 -1.037737 6.601577 -13.217725 75.824738 -3.417557 -12.280823 -0.640087 -65.786545 12.177935 -25.764994 -26.430012 -5.000000 21.010830 -17.069569 9.390542 11.599892 23.632277 4.670108 -0.248711 73.638100 -11.509737 -25.822206 25.098715 5.000000 17.169594 7.858140 -30.000000 5.834141 -2.312665 6.373758 -18.756874 8.455735 -4.744410 -0.878380 -3.259170 -26.474222 -21.749166 22.479778 -3.867957 -39.994335 11.281228 2.100367 0.462768 -20.396809 -37.419239 2.124126 
-1.507508 52.182037 0.180213 -0.703903 13.456759 60.753700 24.812580 1.130388 4.231344 3.342894 -2.051561 8.157499 17.194044 -3.809779 -1.036276 6.599432 -13.184859 75.809494 -3.427322 -12.280824 -0.640087 -65.770813 12.110534 -25.608919 -26.506393 -5.000000 21.003778 -17.160254 9.367270 11.433505 23.632320 4.679861 -0.249215 73.626404 -11.508470 -25.801712 25.082943 5.000000 17.085621 7.772671 -30.000000 5.907290 -2.343213 6.356742 -18.707293 8.550680 -4.713567 -0.894165 -3.310024 -26.478983 -21.786739 22.497458 -3.878218 -39.996918 11.240123 2.109716 0.451150 -20.329292 -37.424004 2.192711 
